<?xml version="1.0" encoding="utf-8"?>
<!-- Generator: Adobe Illustrator 23.0.1, SVG Export Plug-In . SVG Version: 6.00 Build 0)  -->
<svg version="1.1" id="Layer_1" xmlns="http://www.w3.org/2000/svg" xmlns:xlink="http://www.w3.org/1999/xlink" x="0px" y="0px"
	 viewBox="0 0 1159.8 273" style="enable-background:new 0 0 1159.8 273;" xml:space="preserve">
<style type="text/css">
	.st0{opacity:7.000000e-02;enable-background:new    ;}
	.st1{fill:#7E50FF;}
	.st2{fill:#1F2835;}
</style>
<g id="XMLID_10_">
	<rect id="XMLID_22_" x="133.7" class="st0" width="123.5" height="129.1"/>
	<rect id="XMLID_1_" x="133.7" y="142.6" class="st1" width="123.5" height="129.1"/>
	<rect id="XMLID_17_" class="st0" width="123.5" height="129.1"/>
	<rect id="XMLID_16_" y="141.3" class="st0" width="123.5" height="131.7"/>
</g>
<g>
	<path class="st2" d="M327.3,239.9c-6.5-0.8-10.9-2.5-13.3-5.1c-2.4-2.6-3.5-6.8-3.1-12.6c1.1-16,3.8-35.7,8-59.2
		c4.2-23.5,9.3-46.2,15.3-68c1.1-4,3.4-6.9,6.8-8.5c3.4-1.6,7.8-2.4,13.3-2.4c9.8,0,14.8,2.7,14.8,8.2c0,2.3-0.5,4.8-1.5,7.8
		c-4.2,12.9-8.4,30.2-12.6,52c-4.2,21.7-7.2,42.4-9,62.1c4.8,0.5,10.3,0.7,16.5,0.7c28.3,0,49.4-8.6,63.4-25.7
		c14-17.1,21-40,21-68.6c0-19.2-5.5-34.1-16.5-44.6c-11-10.5-26.5-15.7-46.5-15.7c-12.9,0-25.7,2-38.4,6.1c-12.7,4-24.1,9.4-34.3,16
		c-2.1,1.5-4.4,2.2-6.8,2.2c-2.7,0-4.9-1.2-6.5-3.5c-1.6-2.3-2.4-5.2-2.4-8.6c0-3.9,0.6-7.1,1.9-9.6c1.3-2.5,3.5-4.8,6.5-6.9
		c11.1-7.6,24.2-13.4,39.2-17.3c15-4,29.5-5.9,43.4-5.9c19.7,0,36.7,3.4,51.1,10.3C451.9,50,463,60,470.8,73.3
		c7.8,13.2,11.6,29.2,11.6,48c0,24.4-4.8,45.7-14.5,63.8c-9.7,18.2-23.8,32.3-42.4,42.3c-18.6,10-40.7,15-66.4,15
		C349.7,242.4,339.1,241.6,327.3,239.9z"/>
	<path class="st2" d="M499.6,231.5c-6-7.3-9-16.8-9-28.6c0-12.9,3-25.2,9-36.7c6-11.5,13.9-20.8,23.9-27.9
		c9.9-7,20.5-10.5,31.6-10.5c3.5,0,5.9,0.7,7.1,2.1c1.2,1.4,2.2,3.8,3,7.4c3.4-0.6,6.9-1,10.7-1c7.9,0,11.9,2.8,11.9,8.5
		c0,3.4-1.2,11.5-3.6,24.2c-3.7,18.6-5.6,31.5-5.6,38.8c0,2.4,0.6,4.4,1.8,5.8c1.2,1.5,2.8,2.2,4.7,2.2c3.1,0,6.8-2,11.1-5.9
		c4.4-4,10.3-10.4,17.7-19.3c1.9-2.3,4.1-3.4,6.5-3.4c2.1,0,3.8,1,5,2.9c1.2,1.9,1.8,4.6,1.8,8c0,6.5-1.5,11.5-4.6,15
		c-6.6,8.2-13.7,15.2-21.1,20.8c-7.4,5.7-14.6,8.5-21.6,8.5c-5.3,0-10.2-1.8-14.7-5.5c-4.4-3.6-7.8-8.6-10.1-14.9
		c-8.4,13.6-19,20.3-31.7,20.3C513.6,242.4,505.6,238.7,499.6,231.5z M542.5,211.6c3.2-4.2,5.6-9.8,7-16.7l9-44.6
		c-6.8,0.2-13,2.7-18.8,7.6c-5.7,4.9-10.3,11.4-13.7,19.5c-3.4,8.1-5.1,16.6-5.1,25.7c0,5,1,8.7,3,11.1c2,2.4,4.8,3.6,8.4,3.6
		C535.8,217.9,539.2,215.8,542.5,211.6z"/>
	<path class="st2" d="M633.4,241.9c-4.4-3.9-6.7-8.2-6.7-13.1c0-4.2,1.5-7.8,4.6-10.9c3.1-3.1,7.6-4.6,13.6-4.6
		c2.1,0,4.6,0.2,7.4,0.6c2.8,0.4,5,0.7,6.4,0.8c-0.2-4.2-1.1-8.2-2.8-11.9c-1.7-3.7-3.8-7.3-6.4-10.8c-2.6-3.5-5-6.5-7.3-9.1
		c-5,9.5-10,17.4-14.9,23.7c-4.9,6.3-10.3,12.3-16.1,17.9c-2.9,2.9-6,4.4-9.2,4.4c-2.6,0-4.7-0.9-6.3-2.8c-1.6-1.9-2.4-4.2-2.4-6.9
		c0-3.2,1.1-6.2,3.4-9l3.1-3.9c8.9-11,15.6-20,20.1-27.1c2.7-4.7,6-10.9,9.7-18.8c3.7-7.8,7.3-15.9,10.9-24.3
		c3.1-7.1,9.4-10.7,19.1-10.7c4.5,0,7.7,0.4,9.4,1.2c1.8,0.8,2.7,2.1,2.7,3.9c0,1-0.3,2.5-1,4.6c-0.6,2.1-1.5,4.2-2.7,6.3
		c-2.9,5.8-4.4,10.7-4.4,14.8c0,2.4,0.8,5.1,2.5,8c1.7,2.9,4.3,6.5,7.9,10.9c5.2,6.8,9.1,12.6,11.8,17.3c2.7,4.8,4,10,4,15.6
		c0,1.6-0.2,3.9-0.5,6.8c7.9-3.1,17.2-11.2,27.9-24.5c1.9-2.3,4.1-3.4,6.5-3.4c2.1,0,3.8,1,5,2.9c1.2,1.9,1.8,4.6,1.8,8
		c0,6.1-1.5,11.1-4.6,15c-8.1,10-15.8,16.8-23.1,20.5c-7.4,3.6-16.4,5.6-27.3,5.9c-6.5,5.5-14.1,8.2-23,8.2
		C644.3,247.7,637.9,245.8,633.4,241.9z"/>
	<path class="st2" d="M850.5,190c1.2,1.9,1.8,4.6,1.8,8c0,6.5-1.5,11.5-4.6,15c-7.4,8.6-15.1,15.6-22.9,21.1
		c-7.8,5.5-16.8,8.2-26.8,8.2c-8.2,0-14.5-2.4-18.7-7.1c-4.2-4.8-6.3-11.7-6.3-20.7c0-4.5,1.1-12.6,3.4-24.2
		c2.1-10.2,3.1-17.2,3.1-21.1c0-2.6-0.9-3.9-2.7-3.9c-2.1,0-5.1,2.7-9,8.1c-3.9,5.4-7.8,12.6-11.6,21.4c-3.9,8.9-7,18.3-9.4,28.1
		c-3.1,12.9-10.7,19.4-22.8,19.4c-4.8,0-8-1.7-9.6-5.2c-1.5-3.5-2.3-9.7-2.3-18.8c0-5.2,0.1-9.3,0.2-12.4l0.2-19.4
		c0-24.9,2.5-50.8,7.6-77.8c5.1-27,12.6-49.6,22.5-68c9.9-18.3,21.8-27.5,35.7-27.5c7.4,0,13.4,3.2,18,9.6
		c4.6,6.4,6.9,14.7,6.9,24.8c0,16.3-4.8,33.2-14.3,50.8c-9.5,17.5-25,38-46.5,61.4c-0.5,8.4-0.7,17-0.7,25.9
		c5.3-13.7,11.3-24.9,17.8-33.6c6.5-8.6,13-14.8,19.4-18.5c6.4-3.7,12.2-5.6,17.6-5.6c10.5,0,15.7,5.3,15.7,15.7
		c0,6.3-1.8,17.7-5.3,34.2c-3.1,14.1-4.6,23.3-4.6,27.9c0,6.5,2.3,9.7,7,9.7c3.2,0,7.1-2,11.5-5.9c4.4-4,10.4-10.4,17.8-19.3
		c1.9-2.3,4.1-3.4,6.5-3.4C847.6,187.1,849.3,188.1,850.5,190z M763.9,49.9c-3.6,8.3-7,19.5-10.3,33.7c-3.3,14.1-6,29.5-8.1,46.2
		c10-11.8,18.3-24.6,24.8-38.5c6.5-13.9,9.8-26.5,9.8-37.8c0-5.2-0.6-9.1-1.7-11.9c-1.1-2.7-2.7-4.1-4.8-4.1
		C770.7,37.4,767.4,41.6,763.9,49.9z"/>
	<path class="st2" d="M977.7,190c1.2,1.9,1.8,4.6,1.8,8c0,6.5-1.5,11.5-4.6,15c-7.3,8.9-14.6,16-22,21.3c-7.4,5.3-16.2,8-26.4,8
		c-12.4,0-22.5-3.5-30-10.7c-7.6-7.1-11.4-16.6-11.4-28.3c0-6.3,3.2-10.8,9.7-13.6c7.1-3.1,12.2-6.3,15.3-9.8
		c3.1-3.5,4.6-7.7,4.6-12.7c0-2.9-0.6-5.1-1.8-6.5c-1.2-1.5-2.7-2.2-4.5-2.2c-4.4,0-9.2,3.1-14.4,9.4c-5.3,6.3-10.1,14.4-14.7,24.3
		c-4.5,9.9-8.1,20.1-10.7,30.6c-1.8,7.6-3.8,12.7-6.2,15.4c-2.3,2.7-6,4-11,4c-5,0-8.7-1.8-11-5.5c-2.3-3.6-3.9-9.2-4.7-16.8
		c-0.8-7.6-1.2-18.7-1.2-33.4c0-24.9,2.5-50.8,7.6-77.8c5.1-27,12.6-49.6,22.5-68c9.9-18.3,21.8-27.5,35.7-27.5
		c7.4,0,13.4,3.2,18,9.6c4.6,6.4,6.9,14.7,6.9,24.8c0,16.3-4.8,33.2-14.3,50.8c-9.5,17.5-25,38-46.5,61.4c-0.5,8.4-0.7,17-0.7,25.9
		c7.8-20.2,16.6-34.8,26.6-44c10-9.1,19.4-13.7,28.1-13.7c8.1,0,14.6,2.7,19.5,8.2c4.9,5.5,7.4,12.3,7.4,20.3c0,8.9-2.3,17-6.8,24.5
		c-4.5,7.4-12.3,14.1-23.3,19.9c0.6,4.4,2.6,7.9,5.9,10.5c3.3,2.7,7.3,4,12,4c5,0,9.8-1.9,14.5-5.8c4.7-3.9,10.8-10.3,18.4-19.4
		c1.9-2.3,4.1-3.4,6.5-3.4C974.8,187.1,976.5,188.1,977.7,190z M885.5,49.9c-3.6,8.3-7,19.5-10.3,33.7c-3.3,14.1-6,29.5-8.1,46.2
		c10-11.8,18.3-24.6,24.8-38.5c6.5-13.9,9.8-26.5,9.8-37.8c0-5.2-0.6-9.1-1.7-11.9c-1.1-2.7-2.7-4.1-4.8-4.1
		C892.3,37.4,889.1,41.6,885.5,49.9z"/>
	<path class="st2" d="M966.8,231.2c-4.8-7.4-7.1-17.3-7.1-29.6c0-7.3,0.9-16.6,2.8-28c1.9-11.4,4.2-22,7.1-31.9
		c1.5-5.2,3.4-8.7,5.8-10.7c2.4-1.9,6.3-2.9,11.6-2.9c8.2,0,12.4,2.7,12.4,8.2c0,4-1.5,13.4-4.6,28.1c-3.9,17.8-5.8,29.8-5.8,36.1
		c0,4.8,0.6,8.6,1.9,11.1c1.3,2.6,3.5,3.9,6.5,3.9c2.9,0,6.5-2,10.9-6.1c4.4-4,10.2-10.4,17.4-19.1c1.9-2.3,4.1-3.4,6.5-3.4
		c2.1,0,3.8,1,5,2.9c1.2,1.9,1.8,4.6,1.8,8c0,6.5-1.5,11.5-4.6,15c-16,19.5-30.9,29.3-44.8,29.3
		C979.2,242.4,971.5,238.6,966.8,231.2z M976.3,107.5c-3.4-3.1-5.1-7.5-5.1-13.2c0-5.7,2.2-10.4,6.7-14.2c4.4-3.8,10-5.7,16.6-5.7
		c6,0,10.8,1.5,14.5,4.4c3.7,2.9,5.6,7,5.6,12.4c0,6.5-2.1,11.6-6.3,15.4c-4.2,3.8-9.8,5.7-16.7,5.7
		C984.8,112.3,979.7,110.7,976.3,107.5z"/>
	<path class="st2" d="M1132.5,190c1.2,1.9,1.8,4.6,1.8,8c0,6.5-1.5,11.5-4.6,15c-6.9,8.6-14.5,15.6-22.8,21.1
		c-8.2,5.5-17.7,8.2-28.3,8.2c-32.9,0-49.4-23.2-49.4-69.5c0-7.1,0.2-14.3,0.7-21.6h-9.4c-4.8,0-8.1-0.9-9.8-2.7
		c-1.7-1.8-2.5-4.6-2.5-8.5c0-9,3.6-13.6,10.9-13.6h13.8c2.7-17.8,6.9-34,12.6-48.7c5.7-14.7,12.5-26.4,20.5-35.1
		c8-8.7,16.6-13.1,25.8-13.1c6.8,0,12.1,3,16,9c3.9,6,5.8,13.5,5.8,22.5c0,25-10.5,46.8-31.5,65.4h27.1c2.6,0,4.4,0.6,5.6,1.7
		c1.1,1.1,1.7,3.2,1.7,6.3c0,11.1-9.1,16.7-27.4,16.7h-29.6c-0.3,8.1-0.5,14.4-0.5,18.9c0,16.8,2,28.6,5.9,35.4
		c4,6.8,10.2,10.2,18.8,10.2c6.9,0,13.1-2.1,18.4-6.3c5.3-4.2,11.6-10.5,18.9-18.9c1.9-2.3,4.1-3.4,6.5-3.4
		C1129.6,187.1,1131.3,188.1,1132.5,190z M1077,62c-3,6.1-5.8,14.5-8.5,25.2c-2.7,10.7-4.9,22.7-6.7,35.7
		c9.5-8.2,16.7-17.5,21.4-27.7c4.8-10.3,7.1-19.6,7.1-28c0-9.5-1.8-14.3-5.3-14.3C1082.7,52.9,1080,55.9,1077,62z"/>
</g>
</svg>
